<?xml version="1.0" encoding="UTF-8" standalone="no"?>
<!DOCTYPE svg PUBLIC "-//W3C//DTD SVG 1.1//EN" "http://www.w3.org/Graphics/SVG/1.1/DTD/svg11.dtd">
<svg width="100%" height="100%" viewBox="0 0 633 524" version="1.1" xmlns="http://www.w3.org/2000/svg" xmlns:xlink="http://www.w3.org/1999/xlink" xml:space="preserve" xmlns:serif="http://www.serif.com/" style="fill-rule:evenodd;clip-rule:evenodd;stroke-linecap:round;stroke-linejoin:round;stroke-miterlimit:1.5;">
    <g id="Cart">
        <path id="items" d="M631.772,5.926C631.772,2.929 629.343,0.5 626.346,0.5C568.354,0.5 63.918,0.5 5.926,0.5C2.929,0.5 0.5,2.929 0.5,5.926C0.5,51.507 0.5,369.982 0.5,415.563C0.5,418.559 2.929,420.989 5.926,420.989C63.918,420.989 568.354,420.989 626.346,420.989C629.343,420.989 631.772,418.559 631.772,415.563C631.772,369.982 631.772,51.507 631.772,5.926Z" style="fill:white;"/>
        <clipPath id="_clip1">
            <path d="M631.772,5.926C631.772,2.929 629.343,0.5 626.346,0.5C568.354,0.5 63.918,0.5 5.926,0.5C2.929,0.5 0.5,2.929 0.5,5.926C0.5,51.507 0.5,369.982 0.5,415.563C0.5,418.559 2.929,420.989 5.926,420.989C63.918,420.989 568.354,420.989 626.346,420.989C629.343,420.989 631.772,418.559 631.772,415.563C631.772,369.982 631.772,51.507 631.772,5.926Z"/>
        </clipPath>
        <g clip-path="url(#_clip1)">
            <g transform="matrix(42.3278,0,0,42.3278,207.044,67.9518)">
            </g>
            <text x="28.225px" y="67.952px" style="font-family:'ArialMT', 'Arial', sans-serif;font-size:42.328px;">Checkout</text>
            <g transform="matrix(42.3278,0,0,42.3278,589.572,381.511)">
            </g>
            <text x="460.108px" y="381.511px" style="font-family:'Arial-BoldMT', 'Arial', sans-serif;font-weight:700;font-size:42.328px;">10,25€</text>
            <g id="item">
                <g transform="matrix(33.3095,0,0,33.3095,150.446,171.086)">
                </g>
                <text x="28.252px" y="171.086px" style="font-family:'ArialMT', 'Arial', sans-serif;font-size:33.31px;">1x pizza</text>
                <g transform="matrix(33.3095,0,0,33.3095,583.034,171.086)">
                </g>
                <text x="499.679px" y="171.086px" style="font-family:'ArialMT', 'Arial', sans-serif;font-size:33.31px;">5,25€</text>
            </g>
            <g id="item1" serif:id="item">
                <g transform="matrix(33.3095,0,0,33.3095,217.065,236.346)">
                </g>
                <text x="28.252px" y="236.346px" style="font-family:'ArialMT', 'Arial', sans-serif;font-size:33.31px;">2x ice cream</text>
                <g transform="matrix(33.3095,0,0,33.3095,583.034,236.346)">
                </g>
                <text x="499.679px" y="236.346px" style="font-family:'ArialMT', 'Arial', sans-serif;font-size:33.31px;">5,00€</text>
            </g>
            <path d="M0.5,107.845L631.772,107.845" style="fill:none;stroke:rgb(217,217,217);stroke-width:1.5px;"/>
            <path d="M0.5,318.285L631.772,318.285" style="fill:none;stroke:rgb(217,217,217);stroke-width:1.5px;"/>
        </g>
        <path d="M631.772,5.926C631.772,2.929 629.343,0.5 626.346,0.5C568.354,0.5 63.918,0.5 5.926,0.5C2.929,0.5 0.5,2.929 0.5,5.926C0.5,51.507 0.5,369.982 0.5,415.563C0.5,418.559 2.929,420.989 5.926,420.989C63.918,420.989 568.354,420.989 626.346,420.989C629.343,420.989 631.772,418.559 631.772,415.563C631.772,369.982 631.772,51.507 631.772,5.926Z" style="fill:none;stroke:rgb(71,71,71);stroke-width:1px;"/>
        <path d="M630.659,455.651C630.659,451.645 629.067,447.803 626.235,444.971C623.402,442.138 619.56,440.547 615.554,440.547L436.151,440.547C432.145,440.547 428.303,442.138 425.471,444.971C422.638,447.803 421.047,451.645 421.047,455.651L421.047,507.901C421.047,511.907 422.638,515.749 425.471,518.582C428.303,521.414 432.145,523.006 436.151,523.006L615.554,523.006C619.56,523.006 623.402,521.414 626.235,518.582C629.067,515.749 630.659,511.907 630.659,507.901L630.659,455.651Z" style="fill:rgb(0,98,208);"/>
        <clipPath id="_clip2">
            <path d="M630.659,455.651C630.659,451.645 629.067,447.803 626.235,444.971C623.402,442.138 619.56,440.547 615.554,440.547L436.151,440.547C432.145,440.547 428.303,442.138 425.471,444.971C422.638,447.803 421.047,451.645 421.047,455.651L421.047,507.901C421.047,511.907 422.638,515.749 425.471,518.582C428.303,521.414 432.145,523.006 436.151,523.006L615.554,523.006C619.56,523.006 623.402,521.414 626.235,518.582C629.067,515.749 630.659,511.907 630.659,507.901L630.659,455.651Z"/>
        </clipPath>
        <g clip-path="url(#_clip2)">
            <g transform="matrix(32.2226,0,0,32.2226,591.037,490.929)">
            </g>
            <text x="458.497px" y="490.929px" style="font-family:'ArialMT', 'Arial', sans-serif;font-size:32.223px;fill:white;">Pay  now</text>
        </g>
    </g>
</svg>
