<?xml version="1.0" encoding="UTF-8" standalone="no"?>
<!DOCTYPE svg PUBLIC "-//W3C//DTD SVG 1.1//EN" "http://www.w3.org/Graphics/SVG/1.1/DTD/svg11.dtd">
<svg width="100%" height="100%" viewBox="0 0 633 222" version="1.1" xmlns="http://www.w3.org/2000/svg" xmlns:xlink="http://www.w3.org/1999/xlink" xml:space="preserve" xmlns:serif="http://www.serif.com/" style="fill-rule:evenodd;clip-rule:evenodd;stroke-linecap:round;stroke-linejoin:round;stroke-miterlimit:1.5;">
    <path id="expanded" d="M631.772,5.926C631.772,2.929 629.343,0.5 626.346,0.5C568.354,0.5 63.918,0.5 5.926,0.5C2.929,0.5 0.5,2.929 0.5,5.926C0.5,36.304 0.5,185.003 0.5,215.381C0.5,218.378 2.929,220.808 5.926,220.808C63.918,220.808 568.354,220.808 626.346,220.808C629.343,220.808 631.772,218.378 631.772,215.381C631.772,185.003 631.772,36.304 631.772,5.926Z" style="fill:white;"/>
    <clipPath id="_clip1">
        <path id="expanded1" serif:id="expanded" d="M631.772,5.926C631.772,2.929 629.343,0.5 626.346,0.5C568.354,0.5 63.918,0.5 5.926,0.5C2.929,0.5 0.5,2.929 0.5,5.926C0.5,36.304 0.5,185.003 0.5,215.381C0.5,218.378 2.929,220.808 5.926,220.808C63.918,220.808 568.354,220.808 626.346,220.808C629.343,220.808 631.772,218.378 631.772,215.381C631.772,185.003 631.772,36.304 631.772,5.926Z"/>
    </clipPath>
    <g clip-path="url(#_clip1)">
        <g transform="matrix(42.3278,0,0,42.3278,399.937,67.9518)">
        </g>
        <text x="28.225px" y="67.952px" style="font-family:'ArialMT', 'Arial', sans-serif;font-size:42.328px;">Click me to expand!</text>
        <g transform="matrix(30,0,0,30,313.914,176.906)">
        </g>
        <text x="28.225px" y="176.906px" style="font-family:'ArialMT', 'Arial', sans-serif;font-size:30px;fill:rgb(126,126,126);">Y<tspan x="45.481px 62.166px " y="176.906px 176.906px ">ou</tspan> clicked me. Nice!</text>
        <path d="M592.922,68.192L593.761,68.192C594.458,68.192 595.088,67.779 595.366,67.14C595.644,66.502 595.516,65.759 595.042,65.249L575.431,44.192C575.1,43.836 574.636,43.634 574.15,43.634C573.664,43.634 573.2,43.836 572.869,44.192L553.258,65.249C552.783,65.759 552.656,66.502 552.934,67.14C553.212,67.779 553.842,68.192 554.539,68.192L555.378,68.192L574.15,47.952L592.922,68.192Z" style="fill:rgb(71,71,71);"/>
        <path d="M0.5,107.261L631.772,107.261" style="fill:none;stroke:rgb(217,217,217);stroke-width:1.5px;"/>
    </g>
    <path id="expanded2" serif:id="expanded" d="M631.772,5.926C631.772,2.929 629.343,0.5 626.346,0.5C568.354,0.5 63.918,0.5 5.926,0.5C2.929,0.5 0.5,2.929 0.5,5.926C0.5,36.304 0.5,185.003 0.5,215.381C0.5,218.378 2.929,220.808 5.926,220.808C63.918,220.808 568.354,220.808 626.346,220.808C629.343,220.808 631.772,218.378 631.772,215.381C631.772,185.003 631.772,36.304 631.772,5.926Z" style="fill:none;stroke:rgb(71,71,71);stroke-width:1px;"/>
</svg>
