<?xml version="1.0" encoding="UTF-8" standalone="no"?>
<!DOCTYPE svg PUBLIC "-//W3C//DTD SVG 1.1//EN" "http://www.w3.org/Graphics/SVG/1.1/DTD/svg11.dtd">
<svg width="100%" height="100%" viewBox="0 0 633 106" version="1.1" xmlns="http://www.w3.org/2000/svg" xmlns:xlink="http://www.w3.org/1999/xlink" xml:space="preserve" xmlns:serif="http://www.serif.com/" style="fill-rule:evenodd;clip-rule:evenodd;stroke-linecap:round;stroke-linejoin:round;stroke-miterlimit:1.5;">
    <path id="collapsed" d="M631.772,5.926C631.772,2.929 629.343,0.5 626.346,0.5C568.354,0.5 63.918,0.5 5.926,0.5C2.929,0.5 0.5,2.929 0.5,5.926C0.5,23.93 0.5,81.569 0.5,99.573C0.5,102.57 2.929,105 5.926,105C63.918,105 568.354,105 626.346,105C629.343,105 631.772,102.57 631.772,99.573C631.772,81.569 631.772,23.93 631.772,5.926Z" style="fill:white;"/>
    <clipPath id="_clip1">
        <path id="collapsed1" serif:id="collapsed" d="M631.772,5.926C631.772,2.929 629.343,0.5 626.346,0.5C568.354,0.5 63.918,0.5 5.926,0.5C2.929,0.5 0.5,2.929 0.5,5.926C0.5,23.93 0.5,81.569 0.5,99.573C0.5,102.57 2.929,105 5.926,105C63.918,105 568.354,105 626.346,105C629.343,105 631.772,102.57 631.772,99.573C631.772,81.569 631.772,23.93 631.772,5.926Z"/>
    </clipPath>
    <g clip-path="url(#_clip1)">
        <g transform="matrix(42.3278,0,0,42.3278,399.937,67.9518)">
        </g>
        <text x="28.225px" y="67.952px" style="font-family:'ArialMT', 'Arial', sans-serif;font-size:42.328px;">Click me to expand!</text>
        <path d="M592.922,43.634L593.761,43.634C594.458,43.634 595.088,44.047 595.366,44.686C595.644,45.325 595.516,46.067 595.042,46.577L575.431,67.635C575.1,67.99 574.636,68.192 574.15,68.192C573.664,68.192 573.2,67.99 572.869,67.635L553.258,46.577C552.783,46.067 552.656,45.325 552.934,44.686C553.212,44.047 553.842,43.634 554.539,43.634L555.378,43.634L574.15,63.874L592.922,43.634Z" style="fill:rgb(71,71,71);"/>
    </g>
    <path id="collapsed2" serif:id="collapsed" d="M631.772,5.926C631.772,2.929 629.343,0.5 626.346,0.5C568.354,0.5 63.918,0.5 5.926,0.5C2.929,0.5 0.5,2.929 0.5,5.926C0.5,23.93 0.5,81.569 0.5,99.573C0.5,102.57 2.929,105 5.926,105C63.918,105 568.354,105 626.346,105C629.343,105 631.772,102.57 631.772,99.573C631.772,81.569 631.772,23.93 631.772,5.926Z" style="fill:none;stroke:rgb(71,71,71);stroke-width:1px;"/>
</svg>
