<?xml version="1.0" encoding="UTF-8" standalone="no"?>
<!DOCTYPE svg PUBLIC "-//W3C//DTD SVG 1.1//EN" "http://www.w3.org/Graphics/SVG/1.1/DTD/svg11.dtd">
<svg width="100%" height="100%" viewBox="0 0 708 323" version="1.1" xmlns="http://www.w3.org/2000/svg" xmlns:xlink="http://www.w3.org/1999/xlink" xml:space="preserve" xmlns:serif="http://www.serif.com/" style="fill-rule:evenodd;clip-rule:evenodd;stroke-linejoin:round;stroke-miterlimit:2;">
    <style>
        #ng, 
        #tx {
            fill: var(--color-notifications-button-hover-text, #eee);
        }
    </style>
    <path d="M308.054,50.153L14.801,50.153C6.627,50.153 0,56.78 0,64.955C-0,104.357 -0,211.478 -0,250.88C0,259.054 6.627,265.681 14.801,265.681L308.054,265.681L308.054,50.153Z" style="fill:url(#_Linear1);"/>
    <path d="M582.777,201.341L523.16,315.632L425.16,315.632L425.16,82.765L518.838,82.765L582.777,201.341ZM364.448,130.361L363.942,266.304L308.054,265.427L308.054,49.899L364.448,130.361Z" style="fill:url(#_Linear2);"/>
    <g id="ng">
        <path d="M45.302,198.432L45.302,79.305L63.474,79.305L63.474,96.243C72.223,83.157 84.861,76.613 101.388,76.613C108.567,76.613 115.166,77.903 121.186,80.483C127.206,83.063 131.712,86.447 134.703,90.635C137.694,94.822 139.788,99.795 140.985,105.554C141.733,109.293 142.106,115.836 142.106,125.184L142.106,198.432L121.916,198.432L121.916,125.969C121.916,117.743 121.13,111.592 119.56,107.517C117.989,103.441 115.204,100.188 111.203,97.758C107.202,95.327 102.51,94.112 97.126,94.112C88.526,94.112 81.104,96.842 74.859,102.301C68.615,107.76 65.493,118.117 65.493,133.372L65.493,198.432L45.302,198.432Z" style="fill-rule:nonzero;"/>
        <path d="M161.797,208.303L181.428,211.22C182.25,217.277 184.531,221.689 188.27,224.456C193.28,228.195 200.123,230.064 208.798,230.064C218.145,230.064 225.362,228.195 230.447,224.456C235.532,220.717 238.972,215.482 240.767,208.752C241.813,204.639 242.3,196.002 242.225,182.84C233.401,193.235 222.408,198.432 209.246,198.432C192.869,198.432 180.194,192.524 171.22,180.709C162.246,168.893 157.759,154.722 157.759,138.196C157.759,126.829 159.816,116.341 163.929,106.731C168.042,97.122 174.006,89.7 181.82,84.465C189.635,79.231 198.814,76.613 209.358,76.613C223.417,76.613 235.008,82.297 244.132,93.663L244.132,79.305L262.752,79.305L262.752,182.279C262.752,200.825 260.864,213.968 257.088,221.708C253.311,229.448 247.329,235.561 239.14,240.048C230.951,244.535 220.875,246.778 208.91,246.778C194.701,246.778 183.222,243.581 174.473,237.187C165.723,230.794 161.498,221.166 161.797,208.303ZM178.511,136.737C178.511,152.367 181.615,163.771 187.821,170.95C194.028,178.129 201.805,181.718 211.153,181.718C220.426,181.718 228.203,178.148 234.485,171.006C240.767,163.864 243.907,152.666 243.907,137.41C243.907,122.828 240.673,111.835 234.204,104.432C227.736,97.028 219.94,93.327 210.817,93.327C201.843,93.327 194.215,96.972 187.934,104.264C181.652,111.555 178.511,122.379 178.511,136.737Z" style="fill-rule:nonzero;"/>
    </g>
    <g id="tx">
        <path d="M467.441,82.58L467.441,131.908L425.16,131.908L425.16,226.16C425.16,245.245 425.564,256.366 426.371,259.523C427.178,262.679 429.014,265.285 431.876,267.34C434.739,269.396 438.276,269.781 442.337,270.423C455.226,272.463 466.527,270.585 466.527,270.585L465.705,316.448C451.318,322.614 441.538,322.529 423.618,321.733C412.472,321.238 402.404,319.861 393.449,316.118C384.494,312.374 377.924,307.529 373.74,301.583C369.556,295.638 366.656,287.6 365.041,277.47C363.72,270.276 363.059,255.742 363.059,233.868L363.059,131.908L334.652,131.908L334.652,82.58L363.059,82.58L363.059,36.115L425.16,-0L425.16,82.58L467.441,82.58Z" style="fill-rule:nonzero;"/>
        <path d="M463.387,316.448L547.729,195.991L466.91,82.58L542.444,82.58L583.844,146.883L627.446,82.58L700.117,82.58L620.84,193.348L707.384,316.448L631.41,316.448L583.844,243.997L535.837,316.448L463.387,316.448Z" style="fill-rule:nonzero;"/>
    </g>
    <defs>
        <linearGradient id="_Linear1" x1="0" y1="0" x2="1" y2="0" gradientUnits="userSpaceOnUse" gradientTransform="matrix(291.192,0,0,291.943,16.8622,161.427)"><stop offset="0" style="stop-color:rgb(144,224,123);stop-opacity:1"/><stop offset="1" style="stop-color:rgb(163,203,90);stop-opacity:1"/></linearGradient>
        <linearGradient id="_Linear2" x1="0" y1="0" x2="1" y2="0" gradientUnits="userSpaceOnUse" gradientTransform="matrix(-269.189,-3.29662e-14,-3.29662e-14,269.189,577.243,211.949)"><stop offset="0" style="stop-color:rgb(209,255,127);stop-opacity:1"/><stop offset="0.57" style="stop-color:rgb(63,141,0);stop-opacity:1"/><stop offset="0.8" style="stop-color:rgb(17,60,0);stop-opacity:1"/><stop offset="1" style="stop-color:rgb(29,144,0);stop-opacity:1"/></linearGradient>
    </defs>
</svg>
